<svg xmlns="http://www.w3.org/2000/svg" viewBox="0 0 24 24" id="Bell"><path d="M18 11c-.6 0-1-.4-1-1 0-2.8-2.2-5-5-5s-5 2.2-5 5c0 .6-.4 1-1 1s-1-.4-1-1c0-3.9 3.1-7 7-7s7 3.1 7 7c0 .6-.4 1-1 1zm3 9c-2.2 0-4-2.6-4-6 0-.6.4-1 1-1s1 .4 1 1c0 2.3 1.1 4 2 4 .6 0 1 .4 1 1s-.4 1-1 1zM3 20c-.6 0-1-.4-1-1s.4-1 1-1c.9 0 2-1.7 2-4 0-.6.4-1 1-1s1 .4 1 1c0 3.4-1.8 6-4 6z" fill="#056389" class="color000000 svgShape"></path><path d="M21 20H3c-.6 0-1-.4-1-1s.4-1 1-1h18c.6 0 1 .4 1 1s-.4 1-1 1zM6 15c-.6 0-1-.4-1-1v-4c0-.6.4-1 1-1s1 .4 1 1v4c0 .6-.4 1-1 1zm12 0c-.6 0-1-.4-1-1v-4c0-.6.4-1 1-1s1 .4 1 1v4c0 .6-.4 1-1 1z" fill="#056389" class="color000000 svgShape"></path><path d="M12 24c-2.2 0-4-1.8-4-4 0-.5.1-.9.2-1.4.2-.5.8-.8 1.3-.6.5.2.8.8.6 1.3-.1.3-.1.5-.1.7 0 1.1.9 2 2 2s2-.9 2-2c0-.2 0-.4-.1-.6-.2-.5.1-1.1.6-1.3.5-.2 1.1.1 1.3.6.2.4.2.9.2 1.4 0 2.1-1.8 3.9-4 3.9zm0-19c-.6 0-1-.4-1-1V1c0-.6.4-1 1-1s1 .4 1 1v3c0 .6-.4 1-1 1z" fill="#056389" class="color000000 svgShape"></path></svg>